<?xml version="1.0" encoding="utf-8"?>
<!-- Generator: Adobe Illustrator 23.0.1, SVG Export Plug-In . SVG Version: 6.00 Build 0)  -->
<svg version="1.1" id="YOU_x5F_WIN" xmlns="http://www.w3.org/2000/svg" xmlns:xlink="http://www.w3.org/1999/xlink" x="0px"
	 y="0px" viewBox="0 0 1087.8 825.7" style="enable-background:new 0 0 1087.8 825.7;" xml:space="preserve">
<style type="text/css">
	.st0{fill:#FF8B00;}
	.st1{fill-rule:evenodd;clip-rule:evenodd;fill:#FFFFFF;stroke:#FFFFFF;stroke-miterlimit:10;}
	.st2{fill-rule:evenodd;clip-rule:evenodd;fill:#FFD900;}
	.st3{fill:none;stroke:#191919;stroke-width:15;stroke-miterlimit:10;}
	.st4{fill:#185443;}
	.st5{fill:url(#SVGID_1_);}
	.st6{fill:url(#SVGID_2_);}
	.st7{fill:url(#SVGID_3_);}
	.st8{stroke:#000000;stroke-width:0.75;stroke-miterlimit:10;}
	.st9{font-family:'MyriadPro-Regular';}
	.st10{font-size:113px;}
	.st11{fill:none;}
</style>
<polyline id="bg" class="st0" points="459,409.5 261,594.6 490,453.9 426.2,712.3 533.4,474 593.4,731.8 578.2,471.1 751.6,674.2 
	621.6,449.1 867.2,551.8 641,416.4 915.5,390.5 649.3,367 886.2,224.7 633.4,321.4 785.7,89.6 601.2,291.3 635.2,14.1 554.2,278.6 
	466.8,14.1 504.7,289.2 316.4,89.6 469.7,320.9 215.8,224.7 454.4,366.2 186.6,390.5 "/>
<g id="pokal">
	<circle class="st1" cx="550.6" cy="304.3" r="48.8"/>
	<path class="st2" d="M473,200.2h156c3.9,0,7,3.1,7,7v11c0,1,0,2-1,3h33c5,0,8,3,8,7c0,23-3,43-12,60c-8,16-20,29-41,40
		c-5,26-24,47-49,54c-1,6-4,11-9,13v39h12v14h38v57h16v29H471v-29h16v-57h38v-14h12v-39c-5-2-8-7-9-13c-25-7-45-28-50-54
		c-20-11-33-24-41-40c-8-17-11-37-11-60c0-3.9,3.1-7,7-7h34c-1-1-1-2-1-3v-11C466,203.3,469.2,200.2,473,200.2z M656.7,341.8l4,13
		l13,4c3,1,3,5,0,6l-13,4l-4,13c-1,4-6,4-7,0l-4-13l-13-4c-3-1-3-5,0-6l13-4l4-13C650.7,337.8,655.7,337.8,656.7,341.8z
		 M553.7,276.2l6,18h20c4,0,5,5,2,7l-16,11l6,19c2,4-3,6-5,4l-16-11l-16,11c-3,2-7,0-6-4l6-19l-15-11c-3-2-2-7,2-7h19l6-18
		C548.7,272.2,552.7,272.2,553.7,276.2z M469.7,376.8l5,14l13,4c4,2,4,6,0,7l-13,5l-5,14c-1,3-5,3-7,0l-4-14l-14-5c-3-1-3-5,0-7
		l14-4l4-14C463.7,373.8,468.7,373.8,469.7,376.8z M625,236.2v74c12-8,21-18,26-29c7-13,9-28,10-45L625,236.2L625,236.2z M477,310.2
		v-74h-36c0,17,3,32,10,45C456,292.2,464,302.2,477,310.2z M550.7,262.8c23,0,42,18,42,41c0,24-19,42-42,42s-42-18-42-42
		C508.7,280.8,527.7,262.8,550.7,262.8z"/>
</g>
<circle id="Ellipse" class="st3" cx="543.9" cy="372.9" r="365.4"/>
<polygon class="st4" points="334.3,698.5 152,735.6 299.8,764.7 "/>
<g>
	<polygon class="st4" points="753.2,701.9 941.7,732.6 790.3,766.7 	"/>
	
		<linearGradient id="SVGID_1_" gradientUnits="userSpaceOnUse" x1="812.2" y1="102.2" x2="1071.2" y2="102.2" gradientTransform="matrix(1 0 0 -1 0 828)">
		<stop class="linGrad2"  offset="0" style="stop-color:#FFFFFF"/>
		<stop class="linGrad1"  offset="0" style="stop-color:#34BF9A"/>
	</linearGradient>
	<polygon class="st5" points="946.2,794 1047.1,813.4 991,709 1071.2,654.8 960.5,638.2 951.2,740 812.2,764.9 	"/>
	
		<linearGradient id="SVGID_2_" gradientUnits="userSpaceOnUse" x1="17.7" y1="101.45" x2="276.7" y2="101.45" gradientTransform="matrix(1 0 0 -1 0 828)">
		<stop class="linGrad1"  offset="0.283" style="stop-color:#FFFFFF"/>
		<stop class="linGrad2"  offset="1" style="stop-color:#185443"/>
	</linearGradient>
	<polygon class="st6" points="142.7,794.8 41.8,814.2 97.9,709.7 17.7,655.6 128.4,638.9 137.7,740.8 276.7,765.7 	"/>
	
		<linearGradient id="SVGID_3_" gradientUnits="userSpaceOnUse" x1="131.4" y1="202.35" x2="956.3" y2="202.35" gradientTransform="matrix(1 0 0 -1 0 828)">
		<stop class="linGrad1"  offset="0" style="stop-color:#FFFFFF"/>
		<stop class="linGrad2"  offset="1" style="stop-color:#34BF9A"/>
	</linearGradient>
	<path class="st7" d="M956.3,732.2l-211.8-36c-23.4-3.6-177-13.6-200.7-13L371.4,698c-12.9,0.3-25.8,1.5-38.6,3.5l-200.6,32
		l-0.8-153.8l181.2-42.9c26-5.3,143.2-18.5,169.7-19l132.5,3.9c43-1.2,85.9,2.9,127.9,12.2l210.6,46.5L956.3,732.2z"/>
</g>
<path d="M34,825.7c-3.7,0-6.6-3.1-6.6-6.8c0-1.2,0.3-2.3,0.9-3.3L88,713.2l-84.9-54c-3.1-2-4.1-6.1-2.2-9.3c1-1.7,2.7-2.8,4.7-3.1
	l118.7-17.7l-1.5-49c-0.1-3,1.7-5.7,4.5-6.6c73.4-24,149.1-40.2,225.8-48.2l29.8-4c193.6-24.1,390.1-5.7,576.1,54
	c2.7,0.9,4.6,3.6,4.5,6.5v46.4l118.5,17.7c3.6,0.5,6.1,4,5.6,7.7c-0.3,2-1.4,3.7-3.1,4.8l-85.4,54l60.4,103c1.4,2.2,1.4,5.1,0,7.3
	c-1.5,2.2-4.1,3.3-6.6,2.8l-271.2-51.8c-2.1-0.3-4-1.7-4.9-3.6l-32.9-65.7c-129.6-13.3-260.3-13-389.8,0.7l-11,1.2l-32.8,64.5
	c-0.4,0.9-1,1.7-1.7,2.3l0,0l0,0l0,0c-0.8,0.5-1.6,0.8-2.5,0.9L35.2,825.7H34z M25.5,657l75.2,48.3c3,2,4,6,2.1,9.2L47.3,809
	l218.9-42.1l-134.4-22.1c-3.6-0.7-6-4.2-5.3-7.8l0,0c-0.1-0.5-0.1-1.1,0-1.6l-1.6-92.6L25.5,657z M821.6,767.4l218.5,42.1
	l-56.2-95.8c-1.8-3.2-0.8-7.3,2.3-9.2l75.6-47.6l-98.7-14.7v93.1c0,2.1-1,4.1-2.7,5.4c-1.4,1.1-3.3,1.6-5,1.3l-29.1,8L821.6,767.4z
	 M159.1,736.3l5.3,0.9L301.1,760l26.6-51.6c-57.1,6.7-113.6,16.1-169,27.9L159.1,736.3z M760.2,706.5l26.6,52.9l143.1-24.6
	c-48.2-11.3-97-19.8-146.1-25.4L760.2,706.5z M137.8,635l1.5,91.9c65.8-14.7,132.3-25.8,199.2-33.1l0,0l14.6-1.6
	c131.7-13.8,264.5-13.8,396.2,0l0,0l36.9,4.5c55.3,6.1,110,16.2,163.9,30.1V586.9c-182.8-58-375.7-75.8-565.8-52.2l-29.8,4
	c-74,7.9-147,23.3-218,46l1.5,50.1L137.8,635z"/>
<text transform="matrix(1 0 0 1 245.1093 648)" class="st8 st9 st10">Player1 wins </text>
<line class="st11" x1="550.6" y1="-67" x2="550.6" y2="906"/>
</svg>
